<svg width="18" height="18" viewBox="0 0 18 18" fill="none" xmlns="http://www.w3.org/2000/svg">
<path d="M7.525 12.775L13.6937 6.60625L12.4687 5.38125L7.525 10.325L5.03125 7.83125L3.80625 9.05625L7.525 12.775ZM8.75 17.5C7.53958 17.5 6.40208 17.2703 5.3375 16.8109C4.27292 16.3516 3.34687 15.7281 2.55937 14.9406C1.77187 14.1531 1.14844 13.2271 0.689062 12.1625C0.229687 11.0979 0 9.96042 0 8.75C0 7.53958 0.229687 6.40208 0.689062 5.3375C1.14844 4.27292 1.77187 3.34687 2.55937 2.55937C3.34687 1.77187 4.27292 1.14844 5.3375 0.689062C6.40208 0.229687 7.53958 0 8.75 0C9.96042 0 11.0979 0.229687 12.1625 0.689062C13.2271 1.14844 14.1531 1.77187 14.9406 2.55937C15.7281 3.34687 16.3516 4.27292 16.8109 5.3375C17.2703 6.40208 17.5 7.53958 17.5 8.75C17.5 9.96042 17.2703 11.0979 16.8109 12.1625C16.3516 13.2271 15.7281 14.1531 14.9406 14.9406C14.1531 15.7281 13.2271 16.3516 12.1625 16.8109C11.0979 17.2703 9.96042 17.5 8.75 17.5Z" fill="#82E9FF"/>
</svg>
