<svg width="25" height="27" viewBox="0 0 25 27" fill="none" xmlns="http://www.w3.org/2000/svg">
<path d="M10 26.5625V21.4375L19.1875 12.3125C19.4375 12.0625 19.7135 11.875 20.0156 11.75C20.3177 11.625 20.6354 11.5625 20.9688 11.5625C21.3021 11.5625 21.6198 11.625 21.9219 11.75C22.224 11.875 22.5 12.0625 22.75 12.3125L24.2812 13.875C24.5104 14.125 24.6875 14.401 24.8125 14.7031C24.9375 15.0052 25 15.3125 25 15.625C25 15.9375 24.9323 16.2448 24.7969 16.5469C24.6615 16.849 24.4792 17.125 24.25 17.375L15.125 26.5625H10ZM22.4062 15.6875L20.8438 14.1562L22.4062 15.6875ZM12.5 24.0625H14.0625L19.125 19L18.3438 18.2188L17.5625 17.4375L12.5 22.5V24.0625ZM18.3438 18.2188L17.5625 17.4375L18.3438 18.2188L19.125 19L18.3438 18.2188ZM10.9375 10.625L9.1875 8.84375L11.4688 6.5625H7.28125C7.09375 7.10417 6.80208 7.57292 6.40625 7.96875C6.01042 8.36458 5.54167 8.65625 5 8.84375V19.2812C5.72917 19.5521 6.32812 20.0052 6.79688 20.6406C7.26562 21.276 7.5 22 7.5 22.8125C7.5 23.8542 7.13542 24.7396 6.40625 25.4688C5.67708 26.1979 4.79167 26.5625 3.75 26.5625C2.70833 26.5625 1.82292 26.1979 1.09375 25.4688C0.364583 24.7396 0 23.8542 0 22.8125C0 22 0.234375 21.2812 0.703125 20.6562C1.17188 20.0312 1.77083 19.5833 2.5 19.3125V8.84375C1.77083 8.57292 1.17188 8.11979 0.703125 7.48438C0.234375 6.84896 0 6.125 0 5.3125C0 4.27083 0.364583 3.38542 1.09375 2.65625C1.82292 1.92708 2.70833 1.5625 3.75 1.5625C4.5625 1.5625 5.28646 1.79688 5.92188 2.26562C6.55729 2.73438 7.01042 3.33333 7.28125 4.0625H11.4688L9.1875 1.78125L10.9375 0L16.25 5.3125L10.9375 10.625ZM21.25 1.5625C22.2917 1.5625 23.1771 1.92708 23.9062 2.65625C24.6354 3.38542 25 4.27083 25 5.3125C25 6.35417 24.6354 7.23958 23.9062 7.96875C23.1771 8.69792 22.2917 9.0625 21.25 9.0625C20.2083 9.0625 19.3229 8.69792 18.5938 7.96875C17.8646 7.23958 17.5 6.35417 17.5 5.3125C17.5 4.27083 17.8646 3.38542 18.5938 2.65625C19.3229 1.92708 20.2083 1.5625 21.25 1.5625ZM3.75 24.0625C4.10417 24.0625 4.40104 23.9427 4.64062 23.7031C4.88021 23.4635 5 23.1667 5 22.8125C5 22.4583 4.88021 22.1615 4.64062 21.9219C4.40104 21.6823 4.10417 21.5625 3.75 21.5625C3.39583 21.5625 3.09896 21.6823 2.85938 21.9219C2.61979 22.1615 2.5 22.4583 2.5 22.8125C2.5 23.1667 2.61979 23.4635 2.85938 23.7031C3.09896 23.9427 3.39583 24.0625 3.75 24.0625ZM3.75 6.5625C4.10417 6.5625 4.40104 6.44271 4.64062 6.20312C4.88021 5.96354 5 5.66667 5 5.3125C5 4.95833 4.88021 4.66146 4.64062 4.42188C4.40104 4.18229 4.10417 4.0625 3.75 4.0625C3.39583 4.0625 3.09896 4.18229 2.85938 4.42188C2.61979 4.66146 2.5 4.95833 2.5 5.3125C2.5 5.66667 2.61979 5.96354 2.85938 6.20312C3.09896 6.44271 3.39583 6.5625 3.75 6.5625ZM21.25 6.5625C21.6042 6.5625 21.901 6.44271 22.1406 6.20312C22.3802 5.96354 22.5 5.66667 22.5 5.3125C22.5 4.95833 22.3802 4.66146 22.1406 4.42188C21.901 4.18229 21.6042 4.0625 21.25 4.0625C20.8958 4.0625 20.599 4.18229 20.3594 4.42188C20.1198 4.66146 20 4.95833 20 5.3125C20 5.66667 20.1198 5.96354 20.3594 6.20312C20.599 6.44271 20.8958 6.5625 21.25 6.5625Z" fill="#FFD9DF"/>
</svg>
